<svg width="49" height="45" viewBox="0 0 49 45" fill="none" xmlns="http://www.w3.org/2000/svg">
<path fill-rule="evenodd" clip-rule="evenodd" d="M10.5075 30.9427C3.8157 29.0384 0 25.9902 0 22.4932C0 18.9962 3.81707 15.948 10.5076 14.0437C8.78864 7.23992 9.4996 2.3774 12.5 0.628045C15.4435 -1.08861 20.076 0.760802 25 5.60098C29.924 0.760802 34.5565 -1.08861 37.5 0.628045C40.5004 2.3759 41.2114 7.23976 39.4925 14.0436C39.905 14.161 40.3067 14.2828 40.6971 14.4087H39.3984H37.2337H32.0347H29.5225H28.3919C25.7385 14.2547 23.0773 14.2815 20.4266 14.4893C18.6947 17.0313 17.1629 19.707 15.8453 22.4916C17.1702 25.2723 18.7017 27.9474 20.4266 30.4938C22.9895 30.6927 25.495 30.7259 28.0432 30.5934H29.5105H32.0262H37.2401H39.4029H40.6476C40.2728 30.7137 39.8878 30.8301 39.4928 30.9426C41.2113 37.7448 40.5002 42.5995 37.5 44.3472C36.7384 44.79 35.872 45.0161 34.9938 44.9984C32.2107 44.9984 28.6841 43.0184 24.9976 39.3833C21.3169 43.0194 17.7902 45 15.0141 45V44.9984C14.1344 45.0142 13.2641 44.7929 12.5 44.3488C9.49964 42.601 8.78866 37.7444 10.5075 30.9427ZM24.9954 36.3602C26.0572 35.1921 27.063 33.9734 28.0094 32.7084C27.0071 32.7572 26.0037 32.7819 25 32.7825C24.0052 32.7825 22.9968 32.7575 21.9811 32.7077C22.9275 33.973 23.9334 35.1919 24.9954 36.3602ZM19.2644 32.51L19.2703 32.5185L19.2778 32.5191C20.5812 34.3988 22.0063 36.1891 23.5437 37.8781C19.4672 41.8879 15.6016 43.715 13.5422 42.5296C11.475 41.3205 11.1 37.121 12.5328 31.458C14.7508 31.9611 16.9998 32.3115 19.2644 32.51ZM17.7404 30.2262C17.1993 29.3763 16.6784 28.5132 16.1781 27.6378C15.6748 26.7588 15.1926 25.8677 14.7319 24.9653C14.1198 26.4247 13.5779 27.9135 13.1082 29.4264C14.5757 29.7595 16.1248 30.0257 17.7404 30.2262ZM13.5383 22.5016C12.5803 24.5827 11.7579 26.7251 11.0766 28.9149C5.51094 27.3249 2.09219 24.9067 2.09219 22.4932C2.09219 20.0797 5.50938 17.652 11.0766 16.0715C11.7565 18.2618 12.5789 20.4042 13.5383 22.4848L13.5344 22.4932L13.5383 22.5016ZM14.7315 20.0241C14.1196 18.5627 13.5771 17.0723 13.1061 15.5579C14.6405 15.2131 16.1902 14.9427 17.7497 14.7475C16.6614 16.4569 15.6542 18.2178 14.7315 20.0241ZM21.9899 12.2773C23.9955 12.1794 26.0045 12.1794 28.0101 12.2773C27.0649 11.0138 26.0604 9.79647 25 8.62964C23.9396 9.79647 22.9351 11.0138 21.9899 12.2773ZM30.7234 32.519C29.4196 34.3993 27.9941 36.1885 26.4562 37.8781C29.7031 41.0803 32.7797 42.8916 34.9844 42.8916H34.9922C35.5453 42.8916 36.0422 42.7683 36.4578 42.5296C38.525 41.3189 38.9 37.121 37.4672 31.458C35.2487 31.9606 32.9994 32.3126 30.7344 32.5116L30.7297 32.5185L30.7234 32.519ZM30.7297 12.4678V12.4663C32.9966 12.6705 35.2478 13.0253 37.4688 13.5284C38.9016 7.86532 38.5266 3.66583 36.4594 2.45672C34.4 1.25552 30.5266 3.09842 26.4578 7.10824C27.9933 8.80076 29.4202 10.591 30.7297 12.4678ZM13.5406 2.45672C13.9563 2.21016 14.4531 2.09478 15.0141 2.09478C17.2188 2.09478 20.2953 3.9045 23.5422 7.10666C22.0025 8.79556 20.5754 10.586 19.2703 12.4663C17.0034 12.671 14.7523 13.0258 12.5313 13.5284C11.1078 7.86532 11.4734 3.66741 13.5406 2.45672Z" fill="black"/>
<path d="M22.968 18.96H25.128L24.696 22.08H26.076L29.124 18.96H31.236L31.176 19.44L27.708 22.98L30.18 26.52L30.108 27H27.996L25.896 24H24.42L24 27H21.84L22.968 18.96ZM31.7926 27H29.8486L29.9206 26.52L34.5526 18.96H36.7126L39.2326 26.52L39.1606 27H37.2166L36.7366 25.44H32.6926L31.7926 27ZM33.7486 23.64H36.1966L35.3686 20.892L33.7486 23.64ZM42.4155 18.96L45.9075 24.12L46.6275 18.96H48.7875L47.6595 27H45.4995L42.0075 21.84L41.2875 27H39.1275L40.2555 18.96H42.4155Z" fill="black"/>
</svg>
